<?xml version="1.0" standalone="no"?>
<!DOCTYPE svg PUBLIC "-//W3C//DTD SVG 20010904//EN"
 "http://www.w3.org/TR/2001/REC-SVG-20010904/DTD/svg10.dtd">
<svg version="1.0" xmlns="http://www.w3.org/2000/svg"
 width="264.000000pt" height="88.000000pt" viewBox="0 0 264.000000 88.000000"
 preserveAspectRatio="xMidYMid meet">
<metadata>
Created by potrace 1.16, written by Peter Selinger 2001-2019
</metadata>
<g transform="translate(0.000000,88.000000) scale(0.100000,-0.100000)"
fill="#000000" stroke="none">
<path d="M453 682 c-264 -94 -286 -456 -35 -579 48 -24 70 -28 137 -28 67 0
89 4 137 28 65 32 121 90 151 156 30 65 30 187 0 252 -67 148 -241 224 -390
171z m223 -40 c62 -32 97 -65 129 -124 26 -46 30 -63 30 -133 0 -70 -4 -87
-30 -133 -32 -59 -66 -91 -129 -125 -58 -31 -184 -31 -242 0 -63 34 -97 66
-128 123 -85 155 -11 342 161 406 53 20 157 13 209 -14z"/>
<path d="M480 385 c0 -84 4 -135 10 -135 16 0 200 124 200 135 0 11 -184 135
-200 135 -6 0 -10 -51 -10 -135z"/>
<path d="M1035 409 c-4 -6 -3 -15 2 -20 5 -5 251 -8 604 -7 520 3 594 5 594
18 0 13 -74 15 -597 18 -424 1 -599 -1 -603 -9z"/>
</g>
</svg>
